<svg xmlns="http://www.w3.org/2000/svg" fill="none" viewBox="0 0 64 64" id="Css-3--Streamline-Svg-Logos" height="64" width="64">
  <desc>
    Css 3 Streamline Icon: https://streamlinehq.com
  </desc>
  <path fill="#264de4" d="M31.9728 63.33326666666666 13.841866666666665 58.3l-4.040466666666666 -45.31793333333333h44.39713333333333l-4.044666666666666 45.31086666666667 -18.181066666666666 5.040333333333333Z" stroke-width="0.6667"></path>
  <path fill="#2965f1" d="m46.69146666666666 55.40766666666667 3.4564666666666666 -38.7202H32.00033333333333V59.480666666666664l14.691133333333333 -4.0729999999999995Z" stroke-width="0.6667"></path>
  <path fill="#ebebeb" d="m19.0638 33.495266666666666 0.4981333333333333 5.558h12.437866666666666v-5.558h-12.936Z" stroke-width="0.6667"></path>
  <path fill="#ebebeb" d="m18.063133333333333 22.245799999999996 0.5052666666666666 5.558066666666666h13.431733333333334v-5.558066666666666H18.063133333333333Z" stroke-width="0.6667"></path>
  <path fill="#ebebeb" d="m32.00006666666667 47.93013333333333 -0.024333333333333332 0.006466666666666667 -6.190066666666667 -1.6713999999999998 -0.3957333333333333 -4.4328666666666665h-5.5794l0.7786666666666666 8.727 11.385266666666666 3.1605999999999996 0.025599999999999998 -0.007133333333333333v-5.782666666666666Z" stroke-width="0.6667"></path>
  <path fill="#000000" d="M20.25033333333333 0.6666666666666666h6.731733333333333v2.815106666666667h-3.9166666666666665v2.8150999999999997h3.9166666666666665V9.111999999999998H20.25033333333333V0.6666666666666666Z" stroke-width="0.6667"></path>
  <path fill="#000000" d="M28.328466666666664 0.6666666666666666h6.731733333333333v2.44792h-3.9166666666666665v0.48957999999999996h3.9166666666666665v5.630233333333333H28.328466666666664V6.66406h3.9166666666666665v-0.48957999999999996h-3.9166666666666665V0.6666666666666666Z" stroke-width="0.6667"></path>
  <path fill="#000000" d="M36.4066 0.6666666666666666h6.731733333333333v2.44792h-3.9166666666666665v0.48957999999999996h3.9166666666666665v5.630233333333333H36.4066V6.66406h3.9166666666666665v-0.48957999999999996h-3.9166666666666665V0.6666666666666666Z" stroke-width="0.6667"></path>
  <path fill="#ffffff" d="m44.9004 33.4954 1.0034 -11.249600000000001H31.980800000000002v5.558066666666666H39.812666666666665l-0.5057333333333334 5.691533333333333H31.980800000000002v5.558h6.844133333333333l-0.6451333333333333 7.208399999999999 -6.199 1.6731333333333334v5.782466666666666l11.394333333333332 -3.1579333333333333 0.08360000000000001 -0.9390000000000001 1.3060666666666667 -14.632533333333331 0.1356 -1.4925333333333333Z" stroke-width="0.6667"></path>
</svg>