<svg xmlns="http://www.w3.org/2000/svg" fill="none" viewBox="0 0 64 64" id="Github-Icon--Streamline-Svg-Logos" height="64" width="64">
  <desc>
    Github Icon Streamline Icon: https://streamlinehq.com
  </desc>
  <path fill="#161614" d="M32.00026666666666 1.4401066666666664C14.697466666666665 1.4401066666666664 0.6666666666666666 15.468333333333334 0.6666666666666666 32.773666666666664c0 13.843999999999998 8.978 25.589199999999998 21.427799999999998 29.7324 1.566 0.29 2.1408666666666667 -0.6797333333333333 2.1408666666666667 -1.5073333333333334 0 -0.7472 -0.029066666666666664 -3.2154666666666665 -0.042533333333333326 -5.833666666666667 -8.716999999999999 1.8954 -10.5564 -3.696933333333333 -10.5564 -3.696933333333333 -1.4254 -3.6217333333333332 -3.4790666666666668 -4.5847999999999995 -3.4790666666666668 -4.5847999999999995 -2.8428666666666667 -1.9447333333333332 0.21426666666666666 -1.9047333333333332 0.21426666666666666 -1.9047333333333332 3.146466666666666 0.221 4.8031999999999995 3.228933333333333 4.8031999999999995 3.228933333333333 2.7946666666666666 4.7902 7.330133333333333 3.405333333333333 9.118133333333333 2.604733333333333 0.28126666666666666 -2.0252 1.0932666666666666 -3.4074666666666666 1.9893333333333332 -4.189933333333333 -6.959599999999999 -0.7922666666666666 -14.275666666666666 -3.4789999999999996 -14.275666666666666 -15.485133333333332 0 -3.420933333333333 1.224 -6.216133333333333 3.2283999999999997 -8.4104 -0.3253333333333333 -0.7891999999999999 -1.3977999999999997 -3.9761333333333333 0.3035333333333333 -8.292066666666667 0 0 2.6311999999999998 -0.8421333333333334 8.619 3.2118 2.4993999999999996 -0.6942666666666667 5.179866666666666 -1.0424 7.8427333333333324 -1.0543333333333331 2.6628666666666665 0.011933333333333332 5.3454 0.36006666666666665 7.849466666666666 1.0543333333333331 5.980533333333334 -4.053933333333333 8.608066666666666 -3.2118 8.608066666666666 -3.2118 1.7055333333333333 4.315933333333334 0.6325333333333333 7.502866666666667 0.3072 8.292066666666667 2.0090666666666666 2.1942666666666666 3.2248 4.989466666666667 3.2248 8.4104 0 12.034666666666666 -7.330133333333333 14.684533333333334 -14.307399999999998 15.460266666666666 1.1238666666666666 0.9723333333333333 2.1253333333333333 2.8792 2.1253333333333333 5.802533333333333 0 4.192466666666666 -0.03633333333333333 7.566666666666666 -0.03633333333333333 8.598733333333332 0 0.8337999999999999 0.564 1.8108666666666666 2.1522666666666668 1.5031333333333334C54.36673333333333 58.35406666666666 63.33333333333333 46.613 63.33333333333333 32.773666666666664c0 -17.30533333333333 -14.028733333333332 -31.33356 -31.333066666666667 -31.33356ZM12.402133333333333 46.07546666666667c-0.06899999999999999 0.15566666666666668 -0.3139333333333333 0.2023333333333333 -0.5370666666666666 0.09546666666666666 -0.22726666666666664 -0.10219999999999999 -0.35486666666666666 -0.3144 -0.2812 -0.47059999999999996 0.06746666666666666 -0.16033333333333333 0.3128666666666666 -0.205 0.5396 -0.09753333333333333 0.2278 0.10219999999999999 0.3575333333333333 0.3164666666666667 0.2786666666666666 0.4726666666666666Zm1.5412666666666666 1.3752666666666666c-0.14946666666666666 0.13853333333333334 -0.4416 0.07419999999999999 -0.6397999999999999 -0.14479999999999998 -0.20493333333333333 -0.21839999999999998 -0.24333333333333332 -0.5105333333333333 -0.09179999999999999 -0.6511333333333333 0.15406666666666666 -0.1386 0.4374 -0.07373333333333333 0.6428666666666667 0.14473333333333332 0.20493333333333333 0.22106666666666666 0.24486666666666668 0.5110666666666666 0.08873333333333333 0.6512Zm1.0573333333333332 1.7595333333333332c-0.19199999999999998 0.1334 -0.5058666666666667 0.008333333333333333 -0.6999333333333333 -0.27026666666666666 -0.19199999999999998 -0.2786666666666666 -0.19199999999999998 -0.6128 0.004133333333333333 -0.7466666666666667 0.1946 -0.13386666666666666 0.5038 -0.013533333333333331 0.7004666666666666 0.26306666666666667 0.19146666666666667 0.28326666666666667 0.19146666666666667 0.6174666666666666 -0.004666666666666666 0.7538666666666667Zm1.7882666666666664 2.0378666666666665c-0.17179999999999998 0.1894 -0.5376 0.13853333333333334 -0.8053333333333332 -0.11986666666666665 -0.2739333333333333 -0.25266666666666665 -0.35019999999999996 -0.6112 -0.17793333333333333 -0.8006 0.17379999999999998 -0.18993333333333332 0.5416666666666666 -0.13646666666666665 0.8114666666666667 0.11986666666666665 0.2719333333333333 0.2522 0.3549333333333333 0.6133333333333333 0.17179999999999998 0.8006Zm2.3110666666666666 0.688c-0.07573333333333333 0.24539999999999998 -0.42806666666666665 0.3569333333333333 -0.7829333333333334 0.25266666666666665 -0.35439999999999994 -0.1074 -0.5863333333333333 -0.3948666666666667 -0.5147333333333333 -0.6428666666666667 0.07366666666666666 -0.247 0.4275333333333333 -0.36319999999999997 0.7850666666666666 -0.25166666666666665 0.35386666666666666 0.10686666666666667 0.5863333333333333 0.39226666666666665 0.5126 0.6418666666666666Zm2.6302 0.29179999999999995c0.008799999999999999 0.25839999999999996 -0.2921333333333333 0.4726666666666666 -0.6646666666666666 0.4773333333333333 -0.3746666666666667 0.008333333333333333 -0.6776666666666666 -0.2008 -0.6818 -0.4550666666666666 0 -0.26093333333333335 0.2942 -0.47319999999999995 0.6688000000000001 -0.47939999999999994 0.37253333333333327 -0.007266666666666666 0.6776666666666666 0.20026666666666665 0.6776666666666666 0.4571333333333333Zm2.5838 -0.09906666666666666c0.0446 0.2522 -0.21426666666666666 0.5110666666666666 -0.5842666666666666 0.5801333333333333 -0.3637333333333333 0.06639999999999999 -0.7004666666666666 -0.08926666666666666 -0.7466666666666667 -0.3394 -0.04513333333333333 -0.25839999999999996 0.21846666666666664 -0.5172666666666667 0.5816666666666667 -0.5841999999999999 0.3704666666666666 -0.06433333333333333 0.7020666666666666 0.08713333333333334 0.7492666666666665 0.34346666666666664Z" stroke-width="0.6667"></path>
</svg>