<svg xmlns="http://www.w3.org/2000/svg" fill="none" viewBox="0 0 64 64" id="Html-5--Streamline-Svg-Logos" height="64" width="64">
  <desc>
    Html 5 Streamline Icon: https://streamlinehq.com
  </desc>
  <path fill="#e44d26" d="m54.19853333333333 12.982133333333332 -4.044666666666666 45.3108L31.9728 63.33333333333333l-18.13093333333333 -5.033333333333333 -4.040466666666666 -45.31786666666666h44.39713333333333Z" stroke-width="0.6667"></path>
  <path fill="#f16529" d="m31.999333333333333 59.480666666666664 14.691199999999998 -4.072933333333333 3.4564666666666666 -38.7202H31.999333333333333V59.480666666666664Z" stroke-width="0.6667"></path>
  <path fill="#ebebeb" d="M24.1374 27.80373333333333h7.862733333333333v-5.558066666666666H18.063133333333333l0.13306666666666667 1.4911333333333332 1.3660666666666668 15.316466666666665h12.437866666666666v-5.558H24.645333333333333l-0.5079333333333333 -5.691533333333333Z" stroke-width="0.6667"></path>
  <path fill="#ebebeb" d="M25.389333333333333 41.8324h-5.579466666666666l0.7787333333333333 8.726933333333333 11.385266666666666 3.1606666666666663 0.02553333333333333 -0.007133333333333333v-5.782733333333333l-0.024333333333333332 0.006533333333333333 -6.190066666666667 -1.6714666666666667 -0.39566666666666667 -4.4328Z" stroke-width="0.6667"></path>
  <path fill="#000000" d="M13.932266666666665 0.6666666666666666h2.824533333333333v2.790626666666667h2.5838V0.6666666666666666h2.8246666666666664v8.450666666666667h-2.824533333333333V6.287573333333333h-2.5838V9.117333333333333h-2.824533333333333L13.932266666666665 0.6666666666666666Z" stroke-width="0.6667"></path>
  <path fill="#000000" d="M25.879799999999996 3.46904h-2.4866V0.6666666666666666h7.799066666666667v2.8023733333333336h-2.4876666666666667V9.117333333333333h-2.8246666666666664l-0.00013333333333333334 -5.648293333333333Z" stroke-width="0.6667"></path>
  <path fill="#000000" d="M32.42966666666666 0.6666666666666666h2.9452l1.8117333333333332 2.9693199999999997L38.99646666666666 0.6666666666666666h2.9463333333333335v8.450666666666667h-2.8129333333333335V4.928733333333333l-1.9432666666666665 3.004666666666666h-0.048600000000000004l-1.9445999999999999 -3.004666666666666v4.188599999999999h-2.763733333333333V0.6666666666666666Z" stroke-width="0.6667"></path>
  <path fill="#000000" d="M43.34893333333333 0.6666666666666666h2.8254v5.65738h3.972133333333333V9.117333333333333H43.34893333333333V0.6666666666666666Z" stroke-width="0.6667"></path>
  <path fill="#ffffff" d="M31.981133333333332 39.05333333333333h6.844133333333333l-0.6451333333333333 7.208333333333333 -6.199 1.6731999999999998v5.782466666666666l11.394333333333332 -3.1579333333333333 0.08360000000000001 -0.9390666666666667 1.3060666666666667 -14.632533333333331 0.1356 -1.4924666666666666H31.981133333333332v5.558Z" stroke-width="0.6667"></path>
  <path fill="#ffffff" d="M31.981133333333332 27.7902v0.013533333333333331h13.425333333333334l0.11153333333333333 -1.2492666666666665 0.2532 -2.8176666666666663 0.13293333333333332 -1.4911333333333332H31.981133333333332v5.544533333333334Z" stroke-width="0.6667"></path>
</svg>