<svg xmlns="http://www.w3.org/2000/svg" fill="none" viewBox="0 0 64 64" id="Javascript--Streamline-Svg-Logos" height="64" width="64">
  <desc>
    Javascript Streamline Icon: https://streamlinehq.com
  </desc>
  <path fill="#f7df1e" d="M0.6666666666666666 0.6666666666666666h62.666666666666664v62.666666666666664H0.6666666666666666V0.6666666666666666Z" stroke-width="0.6667"></path>
  <path fill="#000000" d="m17.144333333333332 53.035466666666665 4.7956666666666665 -2.9022666666666663c0.9251999999999999 1.6403999999999999 1.7668 3.028266666666666 3.7855333333333334 3.028266666666666 1.9351333333333331 0 3.1551333333333336 -0.7569333333333332 3.1551333333333336 -3.7012666666666663V29.436666666666667h5.8890666666666664v20.1068c0 6.0995333333333335 -3.5753333333333335 8.875866666666667 -8.791733333333333 8.875866666666667 -4.710999999999999 0 -7.445666666666666 -2.4399333333333333 -8.8338 -5.384399999999999" stroke-width="0.6667"></path>
  <path fill="#000000" d="m37.968066666666665 52.404466666666664 4.795133333333333 -2.7763333333333335c1.2622666666666666 2.0614 2.9028666666666667 3.5756666666666668 5.8052 3.5756666666666668 2.4401333333333333 0 3.9961333333333333 -1.22 3.9961333333333333 -2.9026666666666667 0 -2.0191333333333334 -1.5984 -2.734333333333333 -4.290666666666667 -3.9118l-1.4718666666666667 -0.6314c-4.248866666666666 -1.8085333333333333 -7.0674 -4.08 -7.0674 -8.875599999999999 0 -4.416933333333333 3.3651999999999997 -7.782333333333334 8.6236 -7.782333333333334 3.743933333333333 0 6.436066666666666 1.3041999999999998 8.370933333333333 4.711533333333334l-4.585266666666667 2.944466666666666c-1.0095999999999998 -1.8086666666666666 -2.1029999999999998 -2.5236666666666663 -3.7855333333333334 -2.5236666666666663 -1.7247333333333332 0 -2.8185333333333333 1.0936666666666666 -2.8185333333333333 2.5236666666666663 0 1.7668 1.0937999999999999 2.4820666666666664 3.617466666666666 3.5758666666666667l1.4722 0.6309333333333333c5.005866666666666 2.1455333333333333 7.824333333333333 4.332666666666666 7.824333333333333 9.254199999999999 0 5.300599999999999 -4.1644 8.202866666666665 -9.759066666666666 8.202866666666665 -5.468533333333333 0 -9.002199999999998 -2.6079333333333334 -10.726666666666667 -6.0154Z" stroke-width="0.6667"></path>
</svg>