<svg xmlns="http://www.w3.org/2000/svg" fill="none" viewBox="0 0 64 64" id="Postgresql--Streamline-Svg-Logos" height="64" width="64">
  <desc>
    Postgresql Streamline Icon: https://streamlinehq.com
  </desc>
  <path fill="#000000" d="M62.230799999999995 38.20526666666666c-0.36533333333333334 -1.1062666666666665 -1.3223333333333334 -1.877 -2.5600666666666667 -2.062 -0.5835333333333332 -0.08713333333333334 -1.2519333333333331 -0.04993333333333333 -2.042733333333333 0.11313333333333332 -1.3784666666666665 0.2844 -2.4012 0.39259999999999995 -3.1475333333333335 0.4136666666666667 2.817133333333333 -4.7565333333333335 5.107933333333333 -10.180866666666667 6.426733333333333 -15.2868 2.1323999999999996 -8.256066666666666 0.9928666666666667 -12.017199999999999 -0.33866666666666667 -13.718599999999999C57.044466666666665 3.1617800000000003 51.90286666666666 0.7426066666666666 45.69973333333333 0.6684533333333333c-3.3087999999999997 -0.04038666666666667 -6.213866666666666 0.6129533333333332 -7.729066666666666 1.08266 -1.4109333333333334 -0.24878666666666666 -2.9281333333333333 -0.38781333333333334 -4.520066666666667 -0.41356 -2.983533333333333 -0.04756 -5.619999999999999 0.6028199999999999 -7.872733333333334 1.9396133333333332 -1.2473999999999998 -0.42157999999999995 -3.2487999999999997 -1.0160999999999998 -5.560333333333333 -1.3956133333333334 -5.436666666666666 -0.8925533333333333 -9.818266666666666 -0.19699999999999998 -13.023133333333334 2.0671066666666666C3.1134466666666665 6.690066666666667 1.3142666666666667 11.453 1.64706 18.105266666666665c0.10553333333333333 2.1121333333333334 1.2871199999999998 8.5382 3.1473666666666666 14.632666666666667 1.0691533333333334 3.5028666666666664 2.20924 6.411866666666667 3.3885733333333334 8.646666666666667 1.6723999999999999 3.1690666666666663 3.4618666666666664 5.035333333333333 5.470866666666667 5.705466666666666 1.1261333333333332 0.37526666666666664 3.1719999999999997 0.6378666666666666 5.323933333333333 -1.154 0.2727333333333333 0.3300666666666666 0.6364666666666666 0.6584 1.1195333333333333 0.9631333333333334 0.6132 0.3868666666666667 1.3632666666666666 0.7029333333333333 2.1121333333333334 0.8901999999999999 2.6993333333333336 0.6748666666666666 5.227666666666666 0.506 7.384733333333333 -0.4397333333333333 0.0132 0.3836 0.023466666666666667 0.7501333333333333 0.0322 1.0666 0.014333333333333332 0.5134666666666666 0.028399999999999998 1.0168 0.047266666666666665 1.4875333333333334 0.1278 3.1832 0.34433333333333327 5.658266666666666 0.986 7.389933333333333 0.035199999999999995 0.0954 0.08259999999999999 0.24046666666666666 0.13266666666666665 0.39426666666666665 0.31999999999999995 0.9802 0.8554666666666666 2.6209333333333333 2.217133333333333 3.9060666666666664 1.4104 1.3310666666666666 3.116133333333333 1.7394 4.678333333333333 1.7392666666666667 0.7835333333333333 0 1.5311333333333332 -0.10273333333333332 2.186733333333333 -0.24326666666666666 2.3373999999999997 -0.5008666666666666 4.991866666666667 -1.2640666666666664 6.912066666666666 -3.9981333333333335 1.8153333333333332 -2.5848 2.6979333333333333 -6.4778666666666656 2.857666666666667 -12.612199999999998 0.020666666666666667 -0.17333333333333334 0.0398 -0.3389333333333333 0.0582 -0.4968666666666666 0.012399999999999998 -0.10646666666666667 0.025066666666666668 -0.21539999999999998 0.037866666666666667 -0.3240666666666666l0.4278 0.037599999999999995 0.11013333333333333 0.007466666666666667c2.3806666666666665 0.10846666666666667 5.2914666666666665 -0.3964 7.079133333333333 -1.2267333333333332 1.4125999999999999 -0.6556 5.9391333333333325 -3.0452666666666666 4.8734 -6.271866666666666Z" stroke-width="0.6667"></path>
  <path fill="#336791" d="M58.16026666666666 38.8328c-7.078266666666666 1.4600666666666666 -7.564866666666667 -0.9364 -7.564866666666667 -0.9364C58.06893333333333 26.806933333333333 61.19306666666666 12.730466666666667 58.497 9.285333333333334 51.141799999999996 -0.11230066666666666 38.409666666666666 4.332179999999999 38.197199999999995 4.447566666666667l-0.06839999999999999 0.012246666666666666c-1.3984666666666667 -0.2902933333333333 -2.9634666666666662 -0.4632333333333333 -4.7223999999999995 -0.49193999999999993 -3.2028 -0.05248666666666666 -5.632266666666666 0.8396466666666667 -7.4758 2.2376466666666666 0 0 -22.712926666666664 -9.356839999999998 -21.656579999999998 11.768013333333332 0.22471999999999998 4.494133333333333 6.44138 34.004733333333334 13.856313333333333 25.09113333333333 2.7101999999999995 -3.259333333333333 5.328799999999999 -6.015266666666666 5.328799999999999 -6.015266666666666 1.3006 0.864 2.8576 1.3047333333333333 4.489933333333333 1.1463999999999999l0.1267333333333333 -0.10766666666666666c-0.0394 0.4047333333333333 -0.021399999999999995 0.8005333333333333 0.0508 1.2691333333333332 -1.9102 2.1342 -1.3488666666666664 2.5089333333333332 -5.167466666666666 3.295 -3.8638666666666666 0.7962666666666666 -1.5939999999999999 2.214 -0.112 2.5844666666666667 1.7966666666666664 0.44933333333333336 5.9532 1.0857999999999999 8.761733333333332 -2.8457999999999997l-0.112 0.4486c0.7484666666666666 0.5994666666666666 1.2740666666666667 3.8993333333333333 1.1859333333333333 6.890666666666666 -0.08806666666666665 2.9914666666666663 -0.14686666666666665 5.0451999999999995 0.44286666666666663 6.649333333333333 0.5897333333333333 1.6041999999999998 1.1774666666666667 5.2135333333333325 6.197333333333333 4.137866666666667 4.194599999999999 -0.8988666666666667 6.3682 -3.2282666666666664 6.6706 -7.1137999999999995 0.2146 -2.7624 0.7001999999999999 -2.3540666666666663 0.7308666666666667 -4.823733333333333l0.38953333333333334 -1.1692c0.4491333333333333 -3.744533333333333 0.07133333333333333 -4.9525999999999994 2.6555999999999997 -4.390733333333333l0.6279999999999999 0.055133333333333326c1.9020000000000001 0.08659999999999998 4.3914 -0.3058666666666666 5.8524666666666665 -0.985 3.1460666666666666 -1.46 5.012 -3.8978 1.9099333333333333 -3.2572666666666668h0.0002666666666666667Z" stroke-width="0.6667"></path>
  <path fill="#ffffff" d="M27.260333333333335 19.9834c-0.6377333333333333 -0.0888 -1.2154666666666665 -0.0066 -1.5077333333333334 0.2146 -0.1645333333333333 0.12453333333333333 -0.21533333333333332 0.2687333333333333 -0.22893333333333332 0.3681333333333333 -0.03673333333333333 0.263 0.1476 0.5536666666666666 0.2607333333333333 0.7036666666666667 0.32026666666666664 0.4245333333333333 0.7882666666666666 0.7163999999999999 1.2515333333333332 0.7807333333333333 0.06706666666666666 0.009266666666666666 0.13379999999999997 0.0138 0.2002 0.0138 0.7725333333333333 0 1.4746666666666668 -0.6014666666666666 1.5366 -1.0453999999999999 0.0774 -0.5559999999999999 -0.7297333333333333 -0.9265999999999999 -1.5124 -1.0355333333333332Z" stroke-width="0.6667"></path>
  <path fill="#ffffff" d="M48.391400000000004 20.000933333333332c-0.0608 -0.43579999999999997 -0.8365333333333332 -0.5600666666666666 -1.5724666666666665 -0.4578 -0.7348666666666667 0.10246666666666666 -1.4475333333333333 0.4341333333333333 -1.3880666666666666 0.8709333333333333 0.04786666666666667 0.3396666666666666 0.6609333333333333 0.9195333333333333 1.3870666666666667 0.9194 0.061200000000000004 0 0.12313333333333333 -0.004066666666666666 0.18546666666666667 -0.012799999999999999 0.4846 -0.06713333333333332 0.8402 -0.3748666666666667 1.0090666666666666 -0.5522666666666667 0.2573333333333333 -0.2702 0.40606666666666663 -0.5716 0.37893333333333334 -0.7674666666666666Z" stroke-width="0.6667"></path>
  <path fill="#ffffff" d="M60.51566666666666 38.6674c-0.26986666666666664 -0.8161999999999999 -1.1384666666666665 -1.0788666666666666 -2.5818 -0.7807333333333333 -4.285333333333333 0.8844 -5.82 0.2717333333333333 -6.324 -0.09933333333333333 3.331 -5.074466666666666 6.071133333333333 -11.208066666666667 7.549333333333333 -16.931066666666666 0.7003333333333333 -2.7108666666666665 1.0871333333333333 -5.2284 1.1186666666666665 -7.280333333333333 0.03493333333333333 -2.2525999999999997 -0.34853333333333336 -3.9075333333333333 -1.1398 -4.9185333333333325 -3.189866666666666 -4.075973333333333 -7.871266666666667 -6.2622599999999995 -13.538333333333334 -6.322346666666666 -3.8958 -0.04376 -7.1874 0.9533466666666667 -7.8255333333333335 1.2336533333333333 -1.3438666666666665 -0.33419999999999994 -2.808866666666667 -0.5393666666666667 -4.403533333333333 -0.5655333333333333 -2.9248 -0.047279999999999996 -5.452733333333333 0.6529133333333332 -7.545866666666666 2.0800466666666666 -0.9091333333333332 -0.33827999999999997 -3.2588 -1.14486 -6.132066666666667 -1.6076666666666668 -4.9677999999999995 -0.7999666666666667 -8.915266666666666 -0.19390666666666667 -11.7324 1.8018533333333333C4.598926666666666 7.6588666666666665 3.04712 11.915799999999999 3.347833333333333 17.929666666666666c0.10117333333333334 2.0234666666666667 1.2539066666666665 8.247733333333333 3.0733533333333334 14.208666666666666C8.815999999999999 39.98393333333333 11.419133333333331 44.425466666666665 14.158266666666666 45.33893333333333c0.32053333333333334 0.107 0.6903333333333334 0.1818 1.0978666666666665 0.1818 0.9991999999999999 0 2.224133333333333 -0.45039999999999997 3.498733333333333 -1.9826666666666668 2.1170666666666667 -2.546933333333333 4.093666666666667 -4.681133333333333 4.822266666666666 -5.4566 1.0768 0.5780666666666666 2.2594666666666665 0.9006666666666666 3.4694666666666665 0.9330666666666666 0.0021333333333333334 0.03166666666666666 0.005399999999999999 0.06333333333333332 0.008199999999999999 0.09486666666666667 -0.2427333333333333 0.28786666666666666 -0.44186666666666663 0.5402 -0.6115333333333333 0.7555999999999999 -0.8382666666666667 1.0640666666666667 -1.0127333333333333 1.2855999999999999 -3.711133333333333 1.8412666666666664 -0.7674 0.15833333333333333 -2.8062666666666662 0.5784666666666667 -2.835933333333333 2.0074666666666667 -0.03253333333333333 1.5612 2.4095999999999997 2.2169333333333334 2.6879333333333335 2.2864666666666666 0.9696666666666666 0.2427333333333333 1.9037333333333333 0.3624666666666666 2.7946 0.3624666666666666 2.166733333333333 -0.00013333333333333334 4.073266666666666 -0.7121333333333333 5.597066666666667 -2.089933333333333 -0.04699999999999999 5.566 0.18519999999999998 11.050666666666666 0.8534666666666666 12.721799999999998 0.5471999999999999 1.3678666666666666 1.8844666666666667 4.711266666666667 6.108266666666666 4.710999999999999 0.6195999999999999 0 1.3019333333333334 -0.07206666666666667 2.0523333333333333 -0.23286666666666667 4.408066666666667 -0.9451999999999999 6.3222 -2.8933999999999997 7.0628 -7.188599999999999 0.3962 -2.2954666666666665 1.0763333333333334 -7.777200000000001 1.396 -10.7174 0.6749999999999999 0.21046666666666664 1.5440666666666667 0.3068666666666666 2.4834666666666667 0.3067333333333333 1.9593333333333334 0 4.220066666666666 -0.41619999999999996 5.637933333333333 -1.0743333333333331 1.5926 -0.7395999999999999 4.466866666666666 -2.5548666666666664 3.9455999999999998 -4.131666666666666ZM50.01819999999999 18.7984c-0.014599999999999998 0.8680666666666667 -0.13406666666666667 1.6561333333333332 -0.2607333333333333 2.4787333333333335 -0.1362 0.8846666666666666 -0.2772 1.7993333333333332 -0.31266666666666665 2.9096666666666664 -0.03506666666666666 1.0806 0.09993333333333333 2.2040666666666664 0.23046666666666665 3.2903333333333333 0.2637333333333333 2.1943333333333332 0.5343333333333333 4.453533333333333 -0.5133333333333333 6.682733333333333 -0.1628 -0.2892 -0.3199333333333333 -0.6046666666666667 -0.4640666666666667 -0.9540666666666666 -0.13013333333333332 -0.3156 -0.4128666666666666 -0.8226 -0.8041999999999999 -1.5243333333333333 -1.5230666666666668 -2.7312666666666665 -5.0896 -9.127333333333333 -3.263866666666667 -11.737333333333334 0.5437333333333333 -0.7769999999999999 1.9238666666666666 -1.5756 5.388399999999999 -1.1457333333333333Zm-4.199333333333334 -14.705533333333332c5.077533333333333 0.11215333333333333 9.094 2.01166 11.9378 5.645466666666666 2.1811333333333334 2.787333333333333 -0.22060000000000002 15.469933333333332 -7.173466666666666 26.411266666666666 -0.06866666666666665 -0.08726666666666666 -0.1386 -0.17533333333333334 -0.21093333333333333 -0.2657333333333333 -0.028866666666666665 -0.03613333333333333 -0.05826666666666667 -0.07286666666666666 -0.08793333333333332 -0.11 1.7966 -2.9672666666666663 1.4452666666666665 -5.903 1.1326 -8.505933333333333 -0.12846666666666667 -1.0682 -0.24979999999999997 -2.0771333333333333 -0.219 -3.0246666666666666 0.032 -1.0047333333333333 0.1648 -1.8660666666666668 0.2931333333333333 -2.699066666666667 0.15799999999999997 -1.0266666666666666 0.3186 -2.0888 0.27426666666666666 -3.3409999999999997 0.03306666666666666 -0.13126666666666664 0.0464 -0.28646666666666665 0.029133333333333334 -0.4706666666666666 -0.11313333333333332 -1.2008666666666665 -1.484 -4.7943333333333324 -4.278333333333333 -8.0472 -1.5282666666666667 -1.7789333333333333 -3.7573333333333334 -3.7699266666666666 -6.8007333333333335 -5.1127666666666665 1.3090666666666666 -0.2713 3.099266666666667 -0.5243066666666667 5.103466666666666 -0.4797ZM17.406133333333333 42.416599999999995c-1.4042 1.6882666666666666 -2.3739999999999997 1.3648 -2.6928666666666663 1.2585333333333333 -2.077933333333333 -0.6931333333333334 -4.488866666666667 -5.084733333333333 -6.614466666666666 -12.048866666666665 -1.8392933333333332 -6.0258 -2.9142200000000003 -12.085133333333333 -2.9992066666666664 -13.784266666666667 -0.2686266666666667 -5.373666666666666 1.0339733333333332 -9.118733333333333 3.87174 -11.131266666666665 4.618266666666666 -3.2751466666666667 12.211266666666667 -1.3148466666666665 15.262266666666665 -0.3205533333333333 -0.04393333333333333 0.043199999999999995 -0.08953333333333333 0.08372666666666667 -0.133 0.12762666666666667 -5.006466666666666 5.056326666666666 -4.887733333333333 13.69506 -4.875466666666666 14.223059999999998 -0.00039999999999999996 0.20373333333333332 0.016599999999999997 0.49219999999999997 0.04006666666666667 0.8889999999999999 0.08613333333333334 1.4529333333333332 0.24639999999999998 4.1572 -0.1818 7.219666666666666 -0.3980666666666666 2.8458666666666663 0.4791333333333333 5.631266666666666 2.4063999999999997 7.642133333333334 0.19953333333333334 0.20806666666666665 0.4078 0.4035333333333333 0.6229333333333333 0.5874666666666666 -0.8579333333333332 0.9187333333333334 -2.7222666666666666 2.9501999999999997 -4.7066 5.337466666666666Zm5.350066666666667 -7.1386c-1.5533333333333332 -1.6206666666666667 -2.2587333333333333 -3.875 -1.9356666666666666 -6.185599999999999 0.45226666666666665 -3.2351333333333328 0.28526666666666667 -6.052666666666667 0.1956 -7.566333333333334 -0.012533333333333334 -0.2118 -0.0236 -0.3974 -0.030266666666666667 -0.5438666666666666 0.7314666666666666 -0.6484 4.120866666666666 -2.4646666666666666 6.537933333333333 -1.9108 1.1032 0.2527333333333333 1.7751333333333332 1.0037333333333334 2.0545999999999998 2.2958 1.4462666666666666 6.688599999999999 0.19146666666666667 9.4764 -0.8167333333333333 11.7166 -0.20786666666666667 0.46153333333333335 -0.4041333333333333 0.8977999999999999 -0.5718666666666666 1.3492l-0.12986666666666666 0.3488c-0.32899999999999996 0.8821333333333332 -0.6350666666666667 1.7022666666666666 -0.8247333333333333 2.481133333333333 -1.6511333333333333 -0.005066666666666666 -3.2575333333333334 -0.7103333333333333 -4.478999999999999 -1.9849333333333332Zm0.2534666666666666 9.020533333333333c-0.4821333333333333 -0.12046666666666667 -0.9158 -0.3297333333333333 -1.1702 -0.5032 0.21246666666666664 -0.10006666666666666 0.5907333333333333 -0.236 1.2466 -0.37106666666666666 3.1743999999999994 -0.6536666666666666 3.6644666666666663 -1.1147333333333331 4.7350666666666665 -2.4740666666666664 0.24553333333333333 -0.31153333333333333 0.5237333333333333 -0.6648666666666666 0.9089999999999999 -1.0952l0.00039999999999999996 -0.0005333333333333334c0.574 -0.6425333333333333 0.8364666666666666 -0.5336 1.3124666666666664 -0.33619999999999994 0.38586666666666664 0.15973333333333334 0.7615333333333334 0.6432 0.9139333333333333 1.1753999999999998 0.07206666666666667 0.2513333333333333 0.15313333333333332 0.7284666666666666 -0.11186666666666667 1.0995333333333333 -2.236333333333333 3.1311999999999998 -5.495066666666666 3.0909999999999997 -7.8354 2.505333333333333Zm16.61253333333333 15.459066666666667c-3.8833333333333333 0.8320666666666666 -5.258266666666667 -1.1493333333333333 -6.1643333333333326 -3.4144666666666663 -0.5848 -1.4624 -0.8721333333333333 -8.056733333333334 -0.6682666666666666 -15.338866666666664 0.0027333333333333333 -0.09699999999999999 -0.011066666666666666 -0.19053333333333333 -0.0378 -0.2785333333333333 -0.023266666666666665 -0.16979999999999998 -0.059 -0.34159999999999996 -0.10853333333333333 -0.5146 -0.30333333333333334 -1.0595333333333332 -1.0422666666666665 -1.945933333333333 -1.9287333333333332 -2.3133333333333335 -0.3522666666666666 -0.14593333333333333 -0.9987999999999999 -0.4136666666666667 -1.7757333333333334 -0.215 0.1658 -0.6826 0.4531333333333333 -1.4533333333333334 0.7645333333333333 -2.288l0.1307333333333333 -0.35126666666666667c0.1472 -0.3958 0.33166666666666667 -0.8058666666666667 0.5269333333333333 -1.2397999999999998 1.0551333333333333 -2.3440666666666665 2.5001333333333333 -5.554466666666666 0.9318666666666666 -12.807333333333332 -0.5875333333333332 -2.716533333333333 -2.5490666666666666 -4.042999999999999 -5.5228 -3.735 -1.7828666666666666 0.18446666666666667 -3.413733333333333 0.9037999999999999 -4.2272 1.3162666666666665 -0.17493333333333333 0.08859999999999998 -0.3349333333333333 0.17419999999999997 -0.48433333333333334 0.2576 0.22693333333333332 -2.737133333333333 1.0848666666666666 -7.852266666666666 4.293733333333333 -11.0886 2.0202666666666667 -2.0375466666666666 4.710999999999999 -3.0437999999999996 7.9894 -2.9896266666666667 6.459533333333333 0.10582 10.601733333333332 3.42076 12.939466666666664 6.183159999999999 2.014333333333333 2.3804666666666665 3.1051333333333333 4.778266666666666 3.540466666666666 6.071400000000001 -3.273733333333333 -0.3327333333333333 -5.500266666666667 0.31353333333333333 -6.629066666666667 1.9271333333333331 -2.4554666666666662 3.51 1.3434 10.322866666666666 3.1692 13.596999999999998 0.3347333333333333 0.6001333333333333 0.6237999999999999 1.1186666666666665 0.7146666666666667 1.3390666666666666 0.5945333333333334 1.4408666666666667 1.3642666666666667 2.4028 1.9262666666666668 3.1051333333333333 0.17226666666666668 0.21513333333333332 0.3394 0.4238 0.46646666666666664 0.6060666666666666 -0.9914666666666667 0.2859333333333333 -2.7724666666666664 0.9462666666666666 -2.6102666666666665 4.2476 -0.13086666666666666 1.6566666666666665 -1.0617999999999999 9.412266666666666 -1.5345999999999997 12.152466666666665 -0.6242666666666666 3.6199999999999997 -1.9564 4.968466666666666 -5.702066666666667 5.771533333333332Zm16.2092 -18.549466666666667c-1.0137999999999998 0.4706666666666666 -2.7105333333333332 0.8237333333333333 -4.322466666666666 0.8994666666666666 -1.7803333333333333 0.08339999999999999 -2.686533333333333 -0.19939999999999997 -2.899733333333333 -0.37333333333333335 -0.10013333333333332 -2.0572666666666666 0.6657333333333333 -2.2722666666666664 1.4761333333333333 -2.4997999999999996 0.12733333333333333 -0.035866666666666665 0.2516 -0.07066666666666666 0.37146666666666667 -0.11259999999999999 0.0746 0.06066666666666666 0.1562 0.12086666666666665 0.24553333333333333 0.17986666666666665 1.4309333333333332 0.9444666666666667 3.9832666666666663 1.0463333333333331 7.586266666666667 0.30266666666666664 0.0132 -0.0027999999999999995 0.026466666666666666 -0.005333333333333333 0.03953333333333333 -0.008 -0.48586666666666667 0.4543333333333333 -1.3175333333333332 1.0642 -2.4967333333333332 1.6117333333333335Z" stroke-width="0.6667"></path>
</svg>