<svg xmlns="http://www.w3.org/2000/svg" fill="none" viewBox="0 0 64 64" id="React--Streamline-Svg-Logos" height="64" width="64">
  <desc>
    React Streamline Icon: https://streamlinehq.com
  </desc>
  <path fill="#00d8ff" d="M52.191266666666664 22.1938c-0.6501333333333332 -0.22373333333333334 -1.3237333333333332 -0.43546666666666667 -2.017333333333333 -0.6356666666666666 0.114 -0.4652666666666666 0.21860000000000002 -0.9245333333333333 0.31166666666666665 -1.3759333333333332 1.5270666666666666 -7.412533333333333 0.5286 -13.3842 -2.8808 -15.35028 -3.2692 -1.8852333333333333 -8.615666666666666 0.08042666666666666 -14.0154 4.779613333333333 -0.5192 0.45186666666666664 -1.0399333333333334 0.9303333333333332 -1.5603999999999998 1.4317333333333333 -0.3468 -0.3317333333333333 -0.6930000000000001 -0.6523333333333333 -1.0384 -0.9589999999999999 -5.659 -5.02468 -11.331333333333333 -7.142153333333333 -14.737400000000001 -5.17036 -3.2660666666666662 1.8906933333333333 -4.233266666666666 7.50456 -2.8587333333333333 14.529493333333331 0.13273333333333331 0.6785333333333333 0.2879333333333333 1.3714666666666666 0.46340000000000003 2.0759999999999996 -0.8028 0.22786666666666666 -1.5777999999999999 0.47086666666666666 -2.3194 0.7292666666666667C4.9038466666666665 24.561799999999998 0.6666666666666666 28.187066666666666 0.6666666666666666 31.947400000000002c0 3.8836666666666666 4.548613333333333 7.779066666666666 11.459133333333334 10.141066666666667 0.5453333333333332 0.1864 1.1112 0.36260000000000003 1.6943333333333332 0.5299333333333334 -0.18926666666666664 0.762 -0.3539333333333333 1.5086666666666666 -0.4921333333333333 2.236933333333333 -1.3106666666666666 6.903 -0.28713333333333335 12.384266666666665 2.9702666666666664 14.263066666666667 3.364533333333333 1.9402 9.011199999999999 -0.054133333333333325 14.509666666666668 -4.8604 0.4345333333333333 -0.3799333333333333 0.8707333333333334 -0.7828666666666666 1.3075999999999999 -1.2051333333333334 0.5663333333333334 0.5453333333333332 1.1318 1.0614666666666666 1.6942 1.5455333333333332 5.325866666666666 4.583133333333333 10.585999999999999 6.4337333333333335 13.840399999999999 4.549733333333333 3.3612 -1.9457999999999998 4.453533333333333 -7.8339333333333325 3.035333333333333 -14.997866666666667 -0.10826666666666665 -0.5471333333333332 -0.2343333333333333 -1.1060666666666665 -0.3758666666666666 -1.675 0.3965333333333333 -0.1172 0.7858 -0.23826666666666665 1.1654 -0.36406666666666665C58.65913333333333 39.73093333333333 63.33333333333333 35.88293333333333 63.33333333333333 31.947400000000002c0 -3.773933333333333 -4.373799999999999 -7.4236 -11.142066666666667 -9.753599999999999Zm-1.5581999999999998 17.376266666666666c-0.3426666666666667 0.11346666666666666 -0.6942666666666667 0.22313333333333332 -1.0525333333333333 0.32939999999999997 -0.7931333333333332 -2.5107999999999997 -1.8635333333333333 -5.1806 -3.1734 -7.939066666666666 1.25 -2.6926666666666663 2.279 -5.3284 3.0499333333333336 -7.822933333333333 0.641 0.18553333333333333 1.2631999999999999 0.3812 1.8628 0.5876666666666666 5.7989999999999995 1.9963333333333333 9.3364 4.947933333333333 9.3364 7.222266666666666 0 2.422533333333333 -3.820266666666667 5.567333333333334 -10.0232 7.622666666666666Zm-2.5738 5.100133333333333c0.6270666666666667 3.1677999999999997 0.7166666666666666 6.0318000000000005 0.3012666666666667 8.2708 -0.3732 2.0118 -1.1238 3.353133333333333 -2.0518666666666663 3.890333333333333 -1.9749333333333334 1.1431333333333331 -6.198266666666666 -0.34273333333333333 -10.753 -4.262266666666666 -0.5222 -0.4492666666666667 -1.0481333333333334 -0.9290666666666666 -1.5757333333333332 -1.4367999999999999 1.7657999999999998 -1.9311999999999998 3.530533333333333 -4.176266666666667 5.252933333333333 -6.669666666666666 3.0294666666666665 -0.26886666666666664 5.8916 -0.7083333333333333 8.4872 -1.3083333333333331 0.1278 0.5156666666666666 0.24133333333333332 1.0213999999999999 0.3392 1.5159333333333331ZM22.031133333333333 56.633799999999994c-1.929533333333333 0.6814666666666667 -3.4662666666666664 0.7009333333333332 -4.3952 0.16533333333333333 -1.9767333333333332 -1.1401333333333332 -2.7984666666666667 -5.541066666666667 -1.6775333333333333 -11.444533333333332 0.12833333333333333 -0.6760666666666666 0.2812 -1.3705333333333334 0.45733333333333337 -2.0804 2.5670666666666664 0.5676666666666667 5.408266666666666 0.9761333333333333 8.445 1.2223333333333333 1.734 2.4398 3.549733333333333 4.6824666666666666 5.379533333333333 6.646066666666666 -0.3998 0.38599999999999995 -0.798 0.7534000000000001 -1.194 1.0996666666666666 -2.431333333333333 2.1252666666666666 -4.867866666666666 3.6331333333333333 -7.015133333333333 4.391533333333333ZM12.9916 39.55526666666667c-3.0556666666666663 -1.0444 -5.5792 -2.4017999999999997 -7.30894 -3.8830666666666667 -1.5542799999999999 -1.3310666666666666 -2.3390066666666662 -2.6525333333333334 -2.3390066666666662 -3.7248 0 -2.281933333333333 3.402013333333333 -5.192466666666666 9.076013333333332 -7.170733333333333 0.6884666666666666 -0.24006666666666665 1.4091999999999998 -0.46626666666666666 2.1570666666666662 -0.6788 0.7841999999999999 2.5508666666666664 1.8128666666666666 5.2177999999999995 3.054266666666667 7.914666666666666 -1.2574666666666667 2.7368666666666663 -2.300733333333333 5.446333333333333 -3.0925999999999996 8.027066666666666 -0.5331999999999999 -0.15326666666666666 -1.0497333333333332 -0.3146 -1.5467999999999997 -0.48433333333333334Zm3.0301333333333336 -20.625933333333332c-1.1777333333333333 -6.0188 -0.39553333333333335 -10.5592 1.5726666666666667 -11.698533333333332 2.0965333333333334 -1.2136999999999998 6.7324666666666655 0.5167999999999999 11.6186 4.8553999999999995 0.31233333333333335 0.27726666666666666 0.6259333333333332 0.5675333333333332 0.9403333333333334 0.8678 -1.8207333333333333 1.9550666666666665 -3.619866666666667 4.180866666666667 -5.338466666666666 6.606333333333333 -2.9472666666666663 0.27313333333333334 -5.768466666666666 0.712 -8.362333333333332 1.2995999999999999 -0.16306666666666667 -0.6559999999999999 -0.3075333333333333 -1.3005333333333333 -0.43079999999999996 -1.9306Zm27.031533333333332 6.674733333333333c-0.6200666666666667 -1.071 -1.2566666666666666 -2.1167999999999996 -1.9056 -3.1339333333333332 1.9994666666666667 0.2527333333333333 3.9151333333333334 0.5882666666666666 5.714133333333333 0.9988666666666666 -0.5400666666666667 1.7309333333333332 -1.2132666666666667 3.5408 -2.0056666666666665 5.396133333333333 -0.5684666666666667 -1.0792 -1.1697333333333333 -2.167333333333333 -1.8028666666666666 -3.261066666666667ZM32.02986666666666 14.867266666666666c1.2348666666666666 1.3377333333333334 2.4714666666666663 2.8313333333333333 3.687733333333333 4.451866666666667 -1.2256666666666667 -0.057866666666666663 -2.4665333333333335 -0.088 -3.7175999999999996 -0.088 -1.2392666666666665 0 -2.470933333333333 0.02946666666666667 -3.6890666666666663 0.08633333333333333 1.2175333333333334 -1.6054666666666666 2.4648666666666665 -3.0970666666666666 3.718933333333333 -4.4502Zm-11.093999999999998 10.755333333333333c-0.6194 1.0740666666666665 -1.2094666666666667 2.1563333333333334 -1.7690000000000001 3.2405333333333335 -0.7796 -1.8488666666666664 -1.4465333333333332 -3.666933333333333 -1.9913333333333334 -5.422466666666666 1.7879999999999998 -0.4001333333333333 3.6946666666666665 -0.7272666666666666 5.6814 -0.9752666666666667 -0.6581333333333332 1.0266 -1.2999333333333332 2.0802666666666667 -1.9210666666666667 3.1572Zm1.9782666666666666 15.997666666666667c-2.0526666666666666 -0.229 -3.988 -0.5392666666666666 -5.7754666666666665 -0.9284 0.5534666666666667 -1.7868 1.2351333333333332 -3.6437333333333335 2.0312 -5.5324 0.5609999999999999 1.0834 1.1534 2.1660666666666666 1.7765999999999997 3.2425333333333333 0.6348 1.0966 1.2926 2.170733333333333 1.9676666666666665 3.2182666666666666Zm9.1898 7.595933333333333c-1.2688 -1.369 -2.5343999999999998 -2.8833333333333333 -3.7704666666666666 -4.5122 1.1999333333333333 0.04706666666666666 2.4232666666666667 0.07113333333333333 3.6665333333333328 0.07113333333333333 1.2773333333333332 0 2.54 -0.0288 3.782866666666666 -0.08406666666666665 -1.2203333333333333 1.6582 -2.4524666666666666 3.1748666666666665 -3.678933333333333 4.525133333333333Zm12.777733333333332 -14.153c0.8375999999999999 1.9090666666666665 1.5436666666666667 3.756266666666667 2.1042666666666667 5.512666666666666 -1.8169333333333333 0.4145333333333333 -3.7787333333333333 0.7484 -5.845666666666666 0.9964666666666666 0.6505333333333333 -1.0309333333333333 1.2927333333333333 -2.0946 1.9237333333333333 -3.1887999999999996 0.6384 -1.1069333333333333 1.2445333333333333 -2.2156 1.8176666666666668 -3.320333333333333Zm-4.1366 1.9829333333333334c-0.9796 1.6985333333333332 -1.9852666666666665 3.319933333333333 -3.006266666666667 4.850466666666666 -1.8596 0.13293333333333332 -3.780733333333333 0.20146666666666668 -5.7387999999999995 0.20146666666666668 -1.950133333333333 0 -3.847133333333333 -0.060599999999999994 -5.6738 -0.1791333333333333 -1.0621333333333332 -1.5505999999999998 -2.0896666666666666 -3.1768666666666663 -3.0629999999999997 -4.8582 -0.9707999999999999 -1.6767333333333332 -1.8640666666666665 -3.3676666666666666 -2.6736666666666666 -5.049133333333333 0.8093999999999999 -1.6853333333333333 1.7005333333333335 -3.378133333333333 2.6657333333333333 -5.051866666666666l-0.0002666666666666667 0.0003333333333333333c0.9678 -1.6782 1.986333333333333 -3.296533333333333 3.0386666666666664 -4.8374 1.8636666666666666 -0.14093333333333333 3.7748 -0.21439999999999998 5.7062 -0.21439999999999998 1.9401333333333333 0 3.8538 0.07406666666666667 5.717 0.21613333333333332 1.0362 1.5296666666666667 2.0478666666666667 3.142733333333333 3.0193999999999996 4.821133333333333 0.9825999999999999 1.6972666666666667 1.8852666666666666 3.3788666666666662 2.701533333333333 5.028066666666666 -0.8138666666666667 1.6775333333333333 -1.7144666666666666 3.376 -2.6927333333333334 5.0725333333333325Zm5.522533333333333 -29.89493333333333c2.098533333333333 1.2101333333333333 2.9146 6.0907333333333336 1.5961333333333334 12.490666666666666 -0.08413333333333334 0.4083333333333333 -0.1788 0.8243333333333333 -0.2816666666666666 1.2458666666666667 -2.5999333333333334 -0.5999333333333333 -5.423133333333333 -1.0463333333333331 -8.379 -1.3235999999999999 -1.7219333333333333 -2.4521333333333333 -3.506333333333333 -4.6814 -5.2974 -6.611333333333333 0.48153333333333337 -0.4632666666666666 0.9623999999999999 -0.9049999999999999 1.4412666666666667 -1.3217999999999999 4.6264666666666665 -4.026266666666666 8.950533333333333 -5.615913333333333 10.920666666666666 -4.479799999999999ZM32 26.351466666666667c3.0904666666666665 0 5.595933333333333 2.505333333333333 5.595933333333333 5.595933333333333 0 3.0904666666666665 -2.5054666666666665 5.595866666666667 -5.595933333333333 5.595866666666667s-5.595933333333333 -2.5054 -5.595933333333333 -5.595866666666667c0 -3.0906000000000002 2.5054666666666665 -5.595933333333333 5.595933333333333 -5.595933333333333Z" stroke-width="0.6667"></path>
</svg>